<?xml version="1.0" standalone="no"?><!DOCTYPE svg PUBLIC "-//W3C//DTD SVG 1.1//EN" "http://www.w3.org/Graphics/SVG/1.1/DTD/svg11.dtd"><svg t="1629631963532" class="icon" viewBox="0 0 1024 1024" version="1.1" xmlns="http://www.w3.org/2000/svg" p-id="1499" xmlns:xlink="http://www.w3.org/1999/xlink" width="200" height="200"><defs><style type="text/css"></style></defs><path d="M488.273171 94.332878c-105.07239 68.483122-209.795122 102.499902-314.318049 102.499902a24.97561 24.97561 0 0 0-24.97561 24.97561v251.429464c0 151.027512 77.349463 291.964878 205.998829 375.608195l105.996488 68.857756a74.926829 74.926829 0 0 0 81.645269 0l105.971512-68.857756c128.649366-83.618341 206.023805-224.580683 206.023805-375.608195V221.80839a24.97561 24.97561 0 0 0-24.97561-24.97561c-104.22322 0-208.846049-34.01678-314.118244-102.499902a24.97561 24.97561 0 0 0-27.273366 0z m13.611707 50.500683l9.790439 6.044098c93.658537 56.694634 187.891512 88.363707 282.474146 94.707512l10.489757 0.574439v227.078244c0 134.044098-68.707902 259.271805-183.271025 333.724097l-105.971512 68.857756a24.97561 24.97561 0 0 1-27.223415 0l-105.971512-68.857756-7.742439-5.144975c-109.892683-75.001756-175.528585-197.582049-175.528585-328.579122V246.15961l10.589658-0.574439c94.807415-6.343805 189.115317-38.012878 282.648976-94.707512l9.740488-6.044098z" fill="#0840F8" p-id="1500"></path><path d="M501.784976 469.541463a24.97561 24.97561 0 0 1 24.825756 22.053464l0.149853 2.897171v104.348097h46.504586a24.97561 24.97561 0 0 1 2.922146 49.801366l-2.922146 0.174829h-46.504586v24.97561h46.504586a24.97561 24.97561 0 0 1 2.922146 49.77639l-2.922146 0.17483h-46.504586v40.485463a24.97561 24.97561 0 0 1-49.77639 2.922146l-0.174829-2.922146V494.517073a24.97561 24.97561 0 0 1 24.97561-24.97561z" fill="#0840F8" p-id="1501"></path><path d="M501.784976 244.760976a124.878049 124.878049 0 1 1 0 249.756097 124.878049 124.878049 0 0 1 0-249.756097z m0 49.951219a74.926829 74.926829 0 1 0 0 149.853659 74.926829 74.926829 0 0 0 0-149.853659z" fill="#0840F8" p-id="1502"></path></svg>