<?xml version="1.0" standalone="no"?><!DOCTYPE svg PUBLIC "-//W3C//DTD SVG 1.1//EN" "http://www.w3.org/Graphics/SVG/1.1/DTD/svg11.dtd"><svg t="1646035353994" class="icon" viewBox="0 0 1024 1024" version="1.1" xmlns="http://www.w3.org/2000/svg" p-id="2106" width="128" height="128" xmlns:xlink="http://www.w3.org/1999/xlink"><defs><style type="text/css"></style></defs><path d="M736.005 696.494H174.18c-17.673 0-32-14.327-32-32V255.582c0-17.673 14.327-32 32-32h157.213c7.96 0 15.635 2.967 21.525 8.321l47.547 43.222h335.54c17.673 0 32 14.327 32 32v357.369c0 17.673-14.327 32-32 32z m-529.825-64h497.825V339.125H388.094a32.002 32.002 0 0 1-21.525-8.321l-47.547-43.222H206.18v344.912z" fill="" p-id="2107"></path><path d="M853.18 821.092H317.509c-17.673 0-32-14.327-32-32s14.327-32 32-32H821.18V414.206c0-17.673 14.327-32 32-32s32 14.327 32 32v374.886c0 17.673-14.327 32-32 32z" fill="" p-id="2108"></path></svg>