<?xml version="1.0" standalone="no"?><!DOCTYPE svg PUBLIC "-//W3C//DTD SVG 1.1//EN" "http://www.w3.org/Graphics/SVG/1.1/DTD/svg11.dtd"><svg t="1717591501759" class="icon" viewBox="0 0 1024 1024" version="1.1" xmlns="http://www.w3.org/2000/svg" p-id="4337" xmlns:xlink="http://www.w3.org/1999/xlink" width="200" height="200"><path d="M631.316 486.763c44.746-35.434 73.64-90.34 73.64-152.024 0-106.628-86.022-193.387-191.789-193.387-105.756 0-191.777 86.759-191.777 193.387 0 61.683 28.894 116.59 73.628 152.024-117.9 47.517-201.476 163.63-201.476 299.204v64.441c0 17.824 14.305 32.24 31.953 32.24h575.356c17.662 0 31.953-14.416 31.953-32.24v-64.44c0-135.637-83.589-251.688-201.488-299.205zM386.132 334.477c0-70.657 56.965-128.096 127.036-128.096s127.048 57.439 127.048 128.096c0 70.633-56.978 128.097-127.048 128.097s-127.036-57.44-127.036-128.097zM762.37 817.084H263.938v-31.416c0-138.568 111.808-251.314 249.266-251.314 137.396 0 249.167 112.746 249.167 251.314v31.416zM283.895 511.476l6.852-1.51c14.703-4.519 25.188-16.39 25.188-30.317 0-13.456-9.798-24.964-23.69-29.818-37.543-15.678-61.77-50.088-61.77-87.995 0-42.96 40.352-79.157 82.59-91.7 7.401-20.981 18.585-40.39 32.826-57.552a214.551 214.551 0 0 1 7.825-11.134c-2.834-0.137-5.529-0.787-8.45-0.787-96.669 0-175.351 72.293-175.351 161.173 0 40.803 16.912 79.045 45.607 108.127-91.29 43.46-150.826 130.394-150.826 228.734v49.865c0 17.823 15.689 32.226 35.06 32.226h62.831c0-22.08 2.46-36.246 7.077-57.066h-44.396v-25.025c0.002-89.08 65.155-165.54 158.627-187.221z m524.632-41.513c28.708-29.081 45.62-67.337 45.62-108.127 0-88.88-78.658-161.197-175.352-161.197-2.92 0-5.629 0.66-8.462 0.787a204.69 204.69 0 0 1 7.825 11.133c14.255 17.162 25.437 36.571 32.802 57.552 42.237 12.544 88.431 48.74 88.431 91.7 0 37.92-24.264 72.342-61.77 88.007-13.892 4.843-23.69 16.352-23.69 29.806 0 13.93 10.51 25.799 25.187 30.317l6.84 1.51c93.512 21.705 158.64 98.142 158.64 187.246v25.025h-50.263c4.642 20.82 7.077 34.986 7.077 57.066h62.83c19.397 0 35.061-14.403 35.061-32.226v-49.865c0.062-98.341-59.473-185.274-150.776-228.734z m0 0" p-id="4338"></path></svg>